<?xml version="1.0" encoding="UTF-8" standalone="no"?>
<!-- Created with Inkscape (http://www.inkscape.org/) -->

<svg
   width="130mm"
   height="60mm"
   viewBox="0 0 130 60"
   version="1.1"
   id="svg5"
   inkscape:version="1.1.1 (3bf5ae0d25, 2021-09-20, custom)"
   sodipodi:docname="OxideLogo.svg"
   xmlns:inkscape="http://www.inkscape.org/namespaces/inkscape"
   xmlns:sodipodi="http://sodipodi.sourceforge.net/DTD/sodipodi-0.dtd"
   xmlns="http://www.w3.org/2000/svg"
   xmlns:svg="http://www.w3.org/2000/svg">
  <sodipodi:namedview
     id="namedview7"
     pagecolor="#ffffff"
     bordercolor="#666666"
     borderopacity="1.0"
     inkscape:pageshadow="2"
     inkscape:pageopacity="0.0"
     inkscape:pagecheckerboard="0"
     inkscape:document-units="mm"
     showgrid="false"
     inkscape:zoom="1.4910439"
     inkscape:cx="166.32642"
     inkscape:cy="115.69076"
     inkscape:window-width="1920"
     inkscape:window-height="1047"
     inkscape:window-x="0"
     inkscape:window-y="33"
     inkscape:window-maximized="1"
     inkscape:current-layer="g30"
     width="130mm" />
  <defs
     id="defs2">
    <rect
       x="401.35626"
       y="456.97809"
       width="491.92581"
       height="239.79111"
       id="rect61468" />
    <rect
       x="50.622795"
       y="424.96219"
       width="673.90582"
       height="241.4165"
       id="rect2211" />
  </defs>
  <g
     inkscape:label="Layer 1"
     inkscape:groupmode="layer"
     id="layer1">
    <text
       xml:space="preserve"
       transform="scale(0.26458333)"
       id="text2209"
       style="font-style:normal;font-variant:normal;font-weight:normal;font-stretch:normal;font-size:40px;line-height:1.25;font-family:Gotham;-inkscape-font-specification:Gotham;white-space:pre;shape-inside:url(#rect2211);fill:#000000;fill-opacity:1;stroke:none" />
    <g
       id="g31"
       transform="matrix(4.0496494,0,0,4.0496494,-57.558945,-69.330937)">
      <g
         id="g30"
         transform="matrix(0.24854696,0,0,0.24854696,10.791047,12.89997)">
        <g
           id="g49809"
           transform="matrix(-1.3016295,1.3016295,-1.3016295,-1.3016295,242.62883,18.006825)"
           inkscape:transform-center-x="18.396078"
           inkscape:transform-center-y="-59.048067"
           style="fill:#da0000;fill-opacity:1">
          <path
             id="rect49417"
             style="fill:#da0000;fill-opacity:1;stroke-width:0.264583"
             d="m 76.262528,48.26682 c 0,9.547048 0,19.094098 0,28.641146 3.199633,0 6.399263,0 9.598895,0 0,-9.547048 0,-19.094098 0,-28.641146 -3.199632,0 -6.399262,0 -9.598895,0 z m 3.853511,2.6479 c 0.611333,0 1.222663,0 1.833996,0 0,1.459688 0,2.919375 0,4.379063 -0.611333,0 -1.222663,0 -1.833996,0 0,-1.459688 0,-2.919375 0,-4.379063 z m 0,19.05 c 0.611333,0 1.222663,0 1.833996,0 0,1.459688 0,2.919375 0,4.379063 -0.611333,0 -1.222663,0 -1.833996,0 0,-1.459688 0,-2.919375 0,-4.379063 z" />
          <path
             id="rect49417-9"
             style="fill:#da0000;fill-opacity:1;stroke-width:0.264583"
             d="m 66.741661,57.788203 c 0,3.199633 0,6.399266 0,9.598898 9.547048,0 19.094098,0 28.641145,0 0,-3.199632 0,-6.399265 0,-9.598898 -9.547047,0 -19.094097,0 -28.641145,0 z m 3.379123,4.00544 c 1.45986,0 2.919717,0 4.379577,0 0,0.611333 0,1.222663 0,1.833996 -1.45986,0 -2.919717,0 -4.379577,0 0,-0.611333 0,-1.222663 0,-1.833996 z m 17.991667,0 c 1.459859,0 2.919716,0 4.379576,0 0,0.611333 0,1.222663 0,1.833996 -1.45986,0 -2.919717,0 -4.379576,0 0,-0.611333 0,-1.222663 0,-1.833996 z" />
        </g>
        <g
           aria-label="O IDE"
           id="text5473"
           style="font-size:49.3889px;line-height:1.25;letter-spacing:-4.66196px;stroke-width:0.264583">
          <path
             d="m 25.275188,60.399964 c 9.532058,0 16.051393,-9.186336 16.051393,-20.24945 0,-8.149168 -4.148667,-13.137447 -10.816169,-13.137447 -9.532058,0 -16.150171,9.186335 -16.150171,20.249449 0,8.149169 4.247446,13.137448 10.914947,13.137448 z m 0.691445,-5.827891 c -3.16089,0 -4.642557,-2.2225 -4.642557,-6.667501 0,-8.198558 3.506612,-15.014226 8.54428,-15.014226 3.111501,0 4.543779,2.173111 4.543779,6.618113 0,8.198557 -3.457223,15.063614 -8.445502,15.063614 z"
             style="font-style:italic;font-weight:bold;font-family:'Source Code Pro';-inkscape-font-specification:'Source Code Pro Bold Italic'"
             id="path200" />
          <path
             d="m 63.562206,59.807297 h 21.928672 l 1.185334,-5.679724 h -7.605891 l 4.198057,-20.842116 h 7.556502 l 1.185333,-5.679724 H 70.081541 l -1.185333,5.679724 h 7.60589 l -4.247445,20.842116 h -7.457724 z"
             style="word-spacing:0px"
             id="path202" />
          <path
             d="m 88.385441,59.807297 h 10.075336 c 9.976553,0 17.236723,-6.865057 17.236723,-19.558005 0,-8.494891 -5.08705,-12.643559 -13.68072,-12.643559 h -7.210782 z m 7.852835,-5.432779 4.247444,-21.336005 h 1.38289 c 4.09928,0 6.86506,2.271889 6.86506,7.655279 0,9.482669 -4.59317,13.680726 -10.42106,13.680726 z"
             style="font-style:italic;font-weight:bold;font-family:'Source Code Pro';-inkscape-font-specification:'Source Code Pro Bold Italic'"
             id="path204" />
          <path
             d="m 114.64095,59.807297 h 21.53356 l 1.08656,-5.679724 h -14.7179 l 1.67923,-8.149168 h 11.95211 l 1.08656,-5.679724 h -11.95212 l 1.38289,-7.013224 h 14.32278 l 1.08656,-5.679724 H 121.1109 Z"
             style="font-style:italic;font-weight:bold;font-family:'Source Code Pro';-inkscape-font-specification:'Source Code Pro Bold Italic'"
             id="path206" />
        </g>
        <g
           aria-label="NDS"
           transform="matrix(0.26458333,0,0,0.26458333,-32.529639,-63.205981)"
           id="text61466"
           style="font-size:80px;line-height:1.25;font-family:'Source Code Pro';-inkscape-font-specification:'Source Code Pro';letter-spacing:50px;word-spacing:100px;white-space:pre;shape-inside:url(#rect61468);fill:#000000">
          <path
             d="m 406.63547,526.97852 h 11.28 l -0.94017,-36.59993 c 5.35981,11.86896 9.8369,24.30386 15.02017,36.59993 h 12.08 v -52.16 h -11.28 l 0.90475,37.09106 -4.02475,-11.17106 -10.96,-25.92 h -12.08 z"
             style="font-weight:bold;-inkscape-font-specification:'Source Code Pro Bold';fill:#000000"
             id="path21626"
             sodipodi:nodetypes="cccccccccccc" />
          <path
             d="m 504.9555,526.97852 h 15.12 c 14.48,0 24.4,-8.4 24.4,-26.32 0,-17.92 -9.92,-25.84 -25.12,-25.84 h -14.4 z m 11.84,-9.52 v -33.12 h 1.92 c 8.16,0 13.68,3.84 13.68,16.32 0,12.48 -5.52,16.8 -13.68,16.8 z"
             style="font-weight:bold;-inkscape-font-specification:'Source Code Pro Bold';fill:#000000"
             id="path19619" />
          <path
             d="m 621.19553,527.93852 c 12.96,0 20.24,-7.52 20.24,-16.16 0,-7.36 -4.32,-11.6 -11.2,-14.16 l -6.32,-2.72 c -5.04,-1.84 -8.56,-3.04 -8.56,-6.16 0,-3.04 2.64,-4.72 6.56,-4.72 5.12,0 8.4,1.52 12,4.16 l 6,-7.44 c -4.72,-4.48 -11.04,-6.88 -17.36,-6.88 -11.28,0 -19.12,6.88 -19.12,15.52 0,7.6 5.28,12.08 11.12,14.24 l 6.72,2.88 c 4.96,2.08 8.08,3.04 8.08,6.72 0,2.64 -2.32,4.56 -7.36,4.56 -5.04,0 -9.92,-2.24 -13.84,-5.44 l -6.8,8.08 c 5.6,4.96 12.8,7.52 19.84,7.52 z"
             style="font-weight:bold;-inkscape-font-specification:'Source Code Pro Bold';fill:#000000"
             id="path19621" />
        </g>
      </g>
      <path
         style="fill:#ffffff;stroke-width:0.335336"
         d="m 107.55554,52.225209 -10.6463,-10.650201 4.44779,-4.438633 4.44779,-4.438633 10.7241,10.728034 10.72411,10.728034 -4.35113,4.3608 c -2.39311,2.398441 -4.42963,4.360801 -4.52559,4.360801 -0.096,0 -4.9653,-4.792591 -10.82077,-10.650202 z"
         id="path125"
         transform="matrix(0.06533487,0,0,0.06533487,14.213316,17.120232)" />
      <path
         style="fill:#ffffff;stroke-width:0.335336"
         d="m 191.31232,62.208392 -4.35596,-4.365891 10.72508,-10.729011 10.72508,-10.72901 2.66296,2.662952 2.66295,2.662953 -0.79539,4.127304 -0.79538,4.127304 -8.23669,8.304645 -8.23669,8.304646 z"
         id="path164"
         transform="matrix(0.06533487,0,0,0.06533487,14.213316,17.120232)" />
      <path
         style="fill:#ffffff;stroke-width:0.335336"
         d="m 193.82054,138.49015 -2.50163,-2.51843 4.43849,-4.43848 4.43848,-4.43848 6.95692,6.95691 6.95691,6.95692 h -8.89377 -8.89378 z"
         id="path203"
         transform="matrix(0.06533487,0,0,0.06533487,14.213316,17.120232)" />
      <path
         style="fill:#ffffff;stroke-width:0.335336"
         d="m 102.19001,151.14918 -4.269342,-4.27884 10.727952,-10.72403 10.72795,-10.72402 4.36225,4.35257 4.36226,4.35257 -10.64639,10.65029 c -5.85552,5.85766 -10.72491,10.6503 -10.82087,10.6503 -0.096,0 -2.09567,-1.92548 -4.44381,-4.27884 z"
         id="path242"
         transform="matrix(0.06533487,0,0,0.06533487,14.213316,17.120232)" />
    </g>
  </g>
</svg>
